<svg width="200" height="200" viewBox="0 0 200 200" fill="none" xmlns="http://www.w3.org/2000/svg">
<g clip-path="url(#clip0_318_35)">
<path d="M155.857 296.571C155.857 261.411 150.88 227.691 142.021 202.829C133.162 177.967 121.147 164 108.618 164C96.0902 164 84.075 177.967 75.2161 202.829C66.3572 227.691 61.3804 261.411 61.3804 296.571L108.618 296.571H155.857Z" fill="white"/>
<path d="M62.8804 296.571C62.8804 261.529 67.8434 227.989 76.6291 203.333C81.0232 191.001 86.1643 181.48 91.6784 175.07C97.1971 168.654 102.954 165.5 108.618 165.5C114.283 165.5 120.04 168.654 125.559 175.07C131.073 181.48 136.214 191.001 140.608 203.333C149.394 227.989 154.357 261.529 154.357 296.571" stroke="#094067" stroke-width="3"/>
<rect x="186.532" y="84.7622" width="5.91646" height="40.808" transform="rotate(7.91915 186.532 84.7622)" fill="white"/>
<path d="M14.1421 81.7144H50.7135V115.238L34.7135 145.714L21.7611 106.857L14.1421 115.238V81.7144Z" fill="white"/>
<rect x="36.9995" y="81.7144" width="149.333" height="73.1429" fill="white"/>
<path d="M85.7612 172.381L132.999 170.857L124.618 173.143L125.38 228H93.3803V173.905L85.7612 172.381Z" fill="white"/>
<ellipse cx="104.809" cy="144.952" rx="72.381" ry="28.1905" fill="#FFFFFE"/>
<path d="M193.045 86.2857C193.045 75.4798 190.72 64.7797 186.202 54.7963C181.684 44.813 175.061 35.7419 166.713 28.1009C158.364 20.46 148.453 14.3989 137.546 10.2636C126.638 6.12838 114.947 4 103.141 4C91.3341 4 79.6433 6.12838 68.7355 10.2636C57.8278 14.3989 47.9168 20.46 39.5683 28.1009C31.2199 35.7419 24.5976 44.813 20.0794 54.7963C15.5613 64.7797 13.2358 75.4798 13.2358 86.2857L103.141 86.2857H193.045Z" fill="#FFFFFE"/>
<path d="M178.257 156.05C180.92 156.735 183.676 156.352 186.176 154.949C188.676 153.546 190.807 151.185 192.301 148.167C193.795 145.148 194.585 141.607 194.569 137.99C194.553 134.374 193.734 130.845 192.214 127.849C190.694 124.854 188.542 122.526 186.03 121.162C183.518 119.797 180.759 119.456 178.102 120.182C175.445 120.908 173.009 122.668 171.102 125.24C169.195 127.812 167.903 131.08 167.389 134.631L180.855 138.095L178.257 156.05Z" fill="#FFFFFE"/>
<mask id="path-10-inside-1_318_35" fill="white">
<path d="M78.7597 117.524C78.7597 122.153 75.6897 125.905 71.9026 125.905C68.1155 125.905 65.0454 122.153 65.0454 117.524C65.0454 112.895 68.1155 109.143 71.9026 109.143C75.6897 109.143 78.7597 112.895 78.7597 117.524ZM69.5026 117.524C69.5026 119.144 70.5771 120.457 71.9026 120.457C73.228 120.457 74.3026 119.144 74.3026 117.524C74.3026 115.904 73.228 114.591 71.9026 114.591C70.5771 114.591 69.5026 115.904 69.5026 117.524Z"/>
</mask>
<path d="M78.7597 117.524C78.7597 122.153 75.6897 125.905 71.9026 125.905C68.1155 125.905 65.0454 122.153 65.0454 117.524C65.0454 112.895 68.1155 109.143 71.9026 109.143C75.6897 109.143 78.7597 112.895 78.7597 117.524ZM69.5026 117.524C69.5026 119.144 70.5771 120.457 71.9026 120.457C73.228 120.457 74.3026 119.144 74.3026 117.524C74.3026 115.904 73.228 114.591 71.9026 114.591C70.5771 114.591 69.5026 115.904 69.5026 117.524Z" fill="#094067" stroke="#094067" stroke-width="2" mask="url(#path-10-inside-1_318_35)"/>
<mask id="path-11-inside-2_318_35" fill="white">
<path d="M139.712 117.524C139.712 122.153 136.642 125.905 132.855 125.905C129.068 125.905 125.998 122.153 125.998 117.524C125.998 112.895 129.068 109.143 132.855 109.143C136.642 109.143 139.712 112.895 139.712 117.524ZM130.455 117.524C130.455 119.144 131.529 120.457 132.855 120.457C134.18 120.457 135.255 119.144 135.255 117.524C135.255 115.904 134.18 114.591 132.855 114.591C131.529 114.591 130.455 115.904 130.455 117.524Z"/>
</mask>
<path d="M139.712 117.524C139.712 122.153 136.642 125.905 132.855 125.905C129.068 125.905 125.998 122.153 125.998 117.524C125.998 112.895 129.068 109.143 132.855 109.143C136.642 109.143 139.712 112.895 139.712 117.524ZM130.455 117.524C130.455 119.144 131.529 120.457 132.855 120.457C134.18 120.457 135.255 119.144 135.255 117.524C135.255 115.904 134.18 114.591 132.855 114.591C131.529 114.591 130.455 115.904 130.455 117.524Z" fill="#094067" stroke="#094067" stroke-width="2" mask="url(#path-11-inside-2_318_35)"/>
<line x1="161.01" y1="87.6176" x2="167.105" y2="134.856" stroke="#094067" stroke-width="3"/>
<path d="M30.7603 78.6666L33.0453 114.476L87.9248 74.0957L90.2173 93.1438L130.626 58.8592L161.184 99.2445" stroke="#094067" stroke-width="3"/>
<path d="M14.7358 86.2857C14.7358 75.6962 17.0145 65.2067 21.446 55.4148C25.8777 45.6225 32.3774 36.7159 40.5811 29.2074C48.785 21.6987 58.5316 15.7362 69.2673 11.6662C80.0031 7.59617 91.5136 5.5 103.141 5.5C114.768 5.5 126.278 7.59617 137.014 11.6662C147.75 15.7362 157.496 21.6987 165.7 29.2074C173.904 36.7159 180.404 45.6225 184.835 55.4148C189.267 65.2067 191.545 75.6962 191.545 86.2857" stroke="#094067" stroke-width="3"/>
<path d="M14.9586 84.5352L14.9582 116L22.6113 107.62L33.2838 139.619" stroke="#094067" stroke-width="3"/>
<line x1="192.059" y1="84.9562" x2="187.487" y2="120.004" stroke="#094067" stroke-width="3"/>
<path d="M168.874 134.846C169.356 131.51 170.565 128.482 172.307 126.133C174.048 123.785 176.216 122.252 178.498 121.629C180.766 121.009 183.128 121.292 185.314 122.48C187.515 123.675 189.469 125.755 190.876 128.528C192.283 131.299 193.054 134.596 193.069 137.997C193.084 141.398 192.34 144.707 190.957 147.502C189.573 150.298 187.635 152.41 185.442 153.641C183.263 154.864 180.902 155.182 178.63 154.597" stroke="#094067" stroke-width="3"/>
<path d="M172.137 155.268C165.159 161.869 146.809 168.739 129.046 171.619M89.4266 173.143C71.4381 170.469 45.5569 162.556 38.0255 156.022C34.2724 152.766 32.4259 149.39 32.2916 146.103C32.1576 142.824 33.7209 139.445 37.1921 136.161" stroke="#094067" stroke-width="3"/>
<path d="M57.4263 109.7C59.721 107.558 62.3199 106.303 65.4068 105.691C71.093 104.564 76.6614 104.361 82.7956 104.758" stroke="#094067" stroke-width="2" stroke-linecap="round"/>
<path d="M119.763 104.433C125.549 103.656 131.678 104.36 137.426 105.116C142.253 105.75 147.331 107.401 151.612 109.143" stroke="#094067" stroke-width="2" stroke-linecap="round"/>
<path d="M175.713 140.836C173.322 138.078 174.801 133.877 177.306 131.713C178.619 130.579 180.308 129.963 181.962 130.734C182.746 131.1 183.23 131.85 183.754 132.505" stroke="#094067" stroke-width="3" stroke-linecap="round"/>
<path d="M100.092 179.238L107.714 188.381L121.37 175.431" stroke="#3DA9FC" stroke-width="3"/>
<path d="M104.664 185.334C102.378 191.429 101.581 197.815 101.374 204.158C101.199 209.505 101.143 215.015 102.488 220.234C102.713 221.105 104.014 227.386 105.882 226.633C106.578 226.353 107.138 225.684 107.605 225.131C108.619 223.928 109.549 222.621 110.383 221.289C115.261 213.504 114.716 204.942 114.569 196C114.52 193.043 113.807 187.619 112.283 184.572" stroke="#3DA9FC" stroke-width="3" stroke-linecap="round"/>
</g>
<defs>
<clipPath id="clip0_318_35">
<rect width="200" height="200" fill="white"/>
</clipPath>
</defs>
</svg>
