<svg width="230" height="230" viewBox="0 0 230 230" fill="none" xmlns="http://www.w3.org/2000/svg">
<g clip-path="url(#clip0_208_392)">
<path d="M230 115C230 51.4873 178.513 0 115 0C51.4873 0 0 51.4873 0 115C0 178.513 51.4873 230 115 230C178.513 230 230 178.513 230 115Z" fill="#D8EEFE"/>
<mask id="mask0_208_392" style="mask-type:alpha" maskUnits="userSpaceOnUse" x="0" y="0" width="230" height="230">
<path d="M230 115C230 51.4873 178.513 0 115 0C51.4873 0 0 51.4873 0 115C0 178.513 51.4873 230 115 230C178.513 230 230 178.513 230 115Z" fill="#D8EEFE"/>
</mask>
<g mask="url(#mask0_208_392)">
<path d="M149 216C149 192.926 145.734 170.797 139.92 154.482C134.107 138.166 126.222 129 118 129C109.778 129 101.893 138.166 96.0797 154.482C90.2661 170.797 87 192.926 87 216H118H149Z" fill="white"/>
<path d="M87.5 216C87.5 192.966 90.7614 170.897 96.5507 154.65C99.4457 146.525 102.845 140.216 106.516 135.949C110.189 131.679 114.089 129.5 118 129.5C121.911 129.5 125.811 131.679 129.484 135.949C133.155 140.216 136.554 146.525 139.449 154.65C145.239 170.897 148.5 192.966 148.5 216" stroke="#094067"/>
<path d="M172.977 77.5349L169.131 77L165.441 103.525L169.287 104.06L172.977 77.5349Z" fill="white"/>
<path d="M56 75H80V97L69.5 117L61 91.5L56 97V75Z" fill="white"/>
<path d="M169 75H71V123H169V75Z" fill="white"/>
<path d="M103 134.5L134 133.5L128.5 135L129 171H108V135.5L103 134.5Z" fill="white"/>
<path d="M115.5 135C141.734 135 163 126.717 163 116.5C163 106.283 141.734 98 115.5 98C89.2665 98 68 106.283 68 116.5C68 126.717 89.2665 135 115.5 135Z" fill="#FFFFFE"/>
<path d="M173.404 78C173.404 70.9086 171.878 63.8867 168.913 57.3351C165.948 50.7835 161.602 44.8306 156.124 39.8162C150.645 34.8019 144.141 30.8243 136.983 28.1105C129.824 25.3968 122.152 24 114.404 24C106.656 24 98.9842 25.3968 91.826 28.1105C84.6678 30.8243 78.1637 34.8019 72.685 39.8162C67.2063 44.8306 62.8604 50.7835 59.8954 57.3351C56.9304 63.8867 55.4043 70.9086 55.4043 78H114.404H173.404Z" fill="#FFFFFE"/>
<path d="M163.698 123.783C165.446 124.232 167.255 123.981 168.895 123.06C170.536 122.139 171.935 120.59 172.915 118.609C173.896 116.629 174.413 114.304 174.403 111.931C174.393 109.558 173.855 107.242 172.858 105.276C171.86 103.31 170.448 101.783 168.8 100.887C167.151 99.9917 165.341 99.7679 163.597 100.244C161.853 100.721 160.254 101.876 159.003 103.564C157.751 105.251 156.904 107.396 156.566 109.726L165.403 112L163.698 123.783Z" fill="#FFFFFE"/>
<mask id="mask1_208_392" style="mask-type:luminance" maskUnits="userSpaceOnUse" x="89" y="93" width="10" height="11">
<path d="M98.4043 98.5C98.4043 101.538 96.3896 104 93.9043 104C91.419 104 89.4043 101.538 89.4043 98.5C89.4043 95.4624 91.419 93 93.9043 93C96.3896 93 98.4043 95.4624 98.4043 98.5ZM92.3293 98.5C92.3293 99.5631 93.0344 100.425 93.9043 100.425C94.7741 100.425 95.4793 99.5631 95.4793 98.5C95.4793 97.4369 94.7741 96.575 93.9043 96.575C93.0344 96.575 92.3293 97.4369 92.3293 98.5Z" fill="white"/>
</mask>
<g mask="url(#mask1_208_392)">
<path d="M98.4043 98.5C98.4043 101.538 96.3896 104 93.9043 104C91.419 104 89.4043 101.538 89.4043 98.5C89.4043 95.4624 91.419 93 93.9043 93C96.3896 93 98.4043 95.4624 98.4043 98.5ZM92.3293 98.5C92.3293 99.5631 93.0344 100.425 93.9043 100.425C94.7741 100.425 95.4793 99.5631 95.4793 98.5C95.4793 97.4369 94.7741 96.575 93.9043 96.575C93.0344 96.575 92.3293 97.4369 92.3293 98.5Z" fill="#094067" stroke="#094067" stroke-width="2"/>
</g>
<mask id="mask2_208_392" style="mask-type:luminance" maskUnits="userSpaceOnUse" x="129" y="93" width="10" height="11">
<path d="M138.404 98.5C138.404 101.538 136.39 104 133.904 104C131.419 104 129.404 101.538 129.404 98.5C129.404 95.4624 131.419 93 133.904 93C136.39 93 138.404 95.4624 138.404 98.5ZM132.329 98.5C132.329 99.5631 133.034 100.425 133.904 100.425C134.774 100.425 135.479 99.5631 135.479 98.5C135.479 97.4369 134.774 96.575 133.904 96.575C133.034 96.575 132.329 97.4369 132.329 98.5Z" fill="white"/>
</mask>
<g mask="url(#mask2_208_392)">
<path d="M138.404 98.5C138.404 101.538 136.39 104 133.904 104C131.419 104 129.404 101.538 129.404 98.5C129.404 95.4624 131.419 93 133.904 93C136.39 93 138.404 95.4624 138.404 98.5ZM132.329 98.5C132.329 99.5631 133.034 100.425 133.904 100.425C134.774 100.425 135.479 99.5631 135.479 98.5C135.479 97.4369 134.774 96.575 133.904 96.575C133.034 96.575 132.329 97.4369 132.329 98.5Z" fill="#094067" stroke="#094067" stroke-width="2"/>
</g>
<path d="M151.9 78.936L155.9 109.936" stroke="#094067"/>
<path d="M66.9043 73.0001L68.4038 96.5L104.418 70.0004L105.922 82.5007L132.44 60.0015L152.494 86.5043" stroke="#094067"/>
<path d="M55.9043 78C55.9043 70.9807 57.4148 64.029 60.3509 57.5413C63.2871 51.0534 67.5922 45.1553 73.0226 40.1851C78.4531 35.2148 84.9024 31.27 92.0032 28.578C99.1041 25.886 106.716 24.5 114.404 24.5C122.092 24.5 129.704 25.886 136.805 28.578C143.906 31.27 150.356 35.2148 155.786 40.1851C161.216 45.1553 165.521 51.0533 168.458 57.5412C171.394 64.029 172.904 70.9807 172.904 78" stroke="#094067"/>
<path d="M55.8792 76.8511L55.8789 97.5002L60.9013 92.0002L67.9051 113" stroke="#094067"/>
<path d="M172.9 77.0647L169.9 100.065" stroke="#094067"/>
<path d="M157.062 109.798C157.389 107.54 158.21 105.475 159.407 103.861C160.603 102.248 162.111 101.169 163.73 100.727C165.344 100.286 167.023 100.49 168.562 101.327C170.107 102.166 171.453 103.611 172.413 105.502C173.372 107.393 173.895 109.632 173.905 111.933C173.915 114.235 173.412 116.481 172.469 118.388C171.525 120.295 170.191 121.761 168.652 122.624C167.119 123.485 165.442 123.715 163.825 123.298" stroke="#094067"/>
<path d="M159.683 123.269C155.104 127.602 143.062 132.11 131.404 134M105.404 135C93.5994 133.245 76.6148 128.052 71.6723 123.765C69.2094 121.628 67.9976 119.412 67.9095 117.255C67.8216 115.103 68.8474 112.886 71.1255 110.73" stroke="#094067"/>
<path d="M84.4043 93.3655C85.9102 91.96 87.6157 91.1366 89.6415 90.7349C93.3731 89.9949 97.0273 89.8622 101.053 90.1223" stroke="#094067" stroke-width="2" stroke-linecap="round"/>
<path d="M125.312 89.9087C129.111 89.3993 133.133 89.8609 136.905 90.3569C140.073 90.7734 143.405 91.8569 146.214 92.9999" stroke="#094067" stroke-width="2" stroke-linecap="round"/>
<path d="M162.031 113.799C160.462 111.989 161.432 109.232 163.076 107.812C163.938 107.068 165.046 106.664 166.131 107.169C166.646 107.409 166.964 107.902 167.308 108.331" stroke="#094067" stroke-linecap="round"/>
<path d="M112.404 139L117.406 145L126.368 136.501" stroke="#3DA9FC"/>
<path d="M115.404 143C113.904 147 113.381 151.191 113.245 155.354C113.13 158.862 113.094 162.478 113.976 165.903C114.124 166.475 114.977 170.597 116.204 170.103C116.66 169.919 117.028 169.48 117.334 169.117C118 168.328 118.61 167.47 119.157 166.596C122.359 161.487 122.001 155.868 121.904 150C121.872 148.059 121.404 144.5 120.404 142.5" stroke="#3DA9FC" stroke-linecap="round"/>
</g>
</g>
<defs>
<clipPath id="clip0_208_392">
<rect width="230" height="230" fill="white"/>
</clipPath>
</defs>
</svg>
