<svg width="51" height="51" viewBox="0 0 51 51" fill="none" xmlns="http://www.w3.org/2000/svg">
<rect width="51" height="51" rx="4" fill="#3DA9FC"/>
<path d="M11.66 23C10.78 23 10.34 22.56 10.34 21.68V10.32C10.34 9.81333 10.4733 9.46667 10.74 9.28C11.0067 9.09333 11.3933 9 11.9 9C12.5933 9 13.1133 9.3 13.46 9.9L16.74 15.6L19.98 9.92C20.1933 9.54667 20.4333 9.3 20.7 9.18C20.98 9.06 21.3467 9 21.8 9C22.68 9 23.12 9.44 23.12 10.32V21.68C23.12 22.56 22.68 23 21.8 23C20.92 23 20.48 22.56 20.48 21.68V13.5L18 18.02C17.68 18.6333 17.2533 18.94 16.72 18.94C16.1867 18.94 15.76 18.6333 15.44 18.02L12.96 13.5V21.68C12.96 22.56 12.5267 23 11.66 23ZM26.7892 26.9H26.3092C25.8959 26.8733 25.5826 26.7467 25.3692 26.52C25.1692 26.2933 25.0692 25.9933 25.0692 25.62C25.0692 24.8733 25.3092 24.5333 25.7892 24.6C25.9092 24.6133 26.0292 24.62 26.1492 24.62C26.2692 24.6333 26.3892 24.64 26.5092 24.64C26.8692 24.64 27.1359 24.6 27.3092 24.52C27.4826 24.4533 27.6159 24.3267 27.7092 24.14C27.8159 23.9667 27.9292 23.7267 28.0492 23.42L28.2092 22.98L25.0092 14.88C24.8359 14.4133 24.8159 14.0467 24.9492 13.78C25.0826 13.5 25.3426 13.36 25.7292 13.36H25.8892C26.6492 13.36 27.1492 13.7133 27.3892 14.42L29.3092 19.96L31.0892 14.44C31.3292 13.72 31.8292 13.36 32.5892 13.36C33.0159 13.36 33.3092 13.5 33.4692 13.78C33.6292 14.0467 33.6292 14.4133 33.4692 14.88L30.1892 24.16C29.9759 24.76 29.7292 25.26 29.4492 25.66C29.1826 26.0733 28.8359 26.38 28.4092 26.58C27.9959 26.7933 27.4559 26.9 26.7892 26.9ZM11.66 42C10.78 42 10.34 41.56 10.34 40.68V29.32C10.34 28.44 10.7733 28 11.64 28C12.5067 28 12.94 28.44 12.94 29.32V39.6H18.8C19.68 39.6 20.12 40 20.12 40.8C20.12 41.6 19.68 42 18.8 42H11.66ZM25.6053 42.22C24.712 42.22 23.9053 42.0133 23.1853 41.6C22.4786 41.1867 21.9186 40.6 21.5053 39.84C21.1053 39.08 20.9053 38.1933 20.9053 37.18C20.9053 36.1533 21.1053 35.2667 21.5053 34.52C21.9186 33.76 22.4786 33.1733 23.1853 32.76C23.9053 32.3333 24.712 32.12 25.6053 32.12C26.512 32.12 27.3186 32.3333 28.0253 32.76C28.732 33.1733 29.2853 33.76 29.6853 34.52C30.0986 35.2667 30.3053 36.1533 30.3053 37.18C30.3053 38.1933 30.0986 39.08 29.6853 39.84C29.2853 40.6 28.732 41.1867 28.0253 41.6C27.3186 42.0133 26.512 42.22 25.6053 42.22ZM25.6053 39.94C26.2453 39.94 26.7653 39.7067 27.1653 39.24C27.5786 38.76 27.7853 38.0733 27.7853 37.18C27.7853 36.2733 27.5786 35.5867 27.1653 35.12C26.7653 34.64 26.2453 34.4 25.6053 34.4C24.9653 34.4 24.4453 34.64 24.0453 35.12C23.6586 35.5867 23.4653 36.2733 23.4653 37.18C23.4653 38.0733 23.6586 38.76 24.0453 39.24C24.4453 39.7067 24.9653 39.94 25.6053 39.94ZM35.9275 45.9C34.4075 45.9 33.2142 45.4733 32.3475 44.62C32.0408 44.3 31.9142 43.98 31.9675 43.66C32.0342 43.3533 32.2275 43.0933 32.5475 42.88C32.8808 42.6533 33.1742 42.5733 33.4275 42.64C33.6942 42.72 33.9942 42.8933 34.3275 43.16C34.5408 43.3067 34.7742 43.42 35.0275 43.5C35.2942 43.58 35.5942 43.62 35.9275 43.62C36.6608 43.62 37.1942 43.4 37.5275 42.96C37.8742 42.52 38.0475 41.8067 38.0475 40.82V40.6C37.4342 41.12 36.7008 41.38 35.8475 41.38C34.9942 41.38 34.2342 41.2133 33.5675 40.88C32.9142 40.5333 32.3942 40.0133 32.0075 39.32C31.6342 38.6267 31.4475 37.7667 31.4475 36.74C31.4475 35.7133 31.6342 34.86 32.0075 34.18C32.3942 33.4867 32.9142 32.9733 33.5675 32.64C34.2342 32.2933 34.9942 32.12 35.8475 32.12C36.3142 32.12 36.7808 32.22 37.2475 32.42C37.7142 32.6067 38.0942 32.9533 38.3875 33.46V33.3C38.3875 32.94 38.4808 32.6933 38.6675 32.56C38.8675 32.4267 39.1342 32.36 39.4675 32.36C40.1875 32.36 40.5475 32.8 40.5475 33.68V40.82C40.5475 42.38 40.1808 43.6133 39.4475 44.52C38.7275 45.44 37.5542 45.9 35.9275 45.9ZM36.0475 39.2C36.6875 39.2 37.2075 38.98 37.6075 38.54C38.0208 38.1 38.2275 37.5 38.2275 36.74C38.2275 35.98 38.0208 35.3867 37.6075 34.96C37.2075 34.5333 36.6875 34.32 36.0475 34.32C35.4075 34.32 34.9075 34.5333 34.5475 34.96C34.1875 35.3867 34.0075 35.98 34.0075 36.74C34.0075 37.5 34.1875 38.1 34.5475 38.54C34.9075 38.98 35.4075 39.2 36.0475 39.2Z" fill="#FFFFFE"/>
</svg>
