<svg width="230" height="230" viewBox="0 0 230 230" fill="none" xmlns="http://www.w3.org/2000/svg">
<g clip-path="url(#clip0_297_94)">
<rect width="230" height="230" rx="30" fill="#D8EEFE"/>
<rect width="230" height="230" fill="#D8EEFE"/>
<path d="M164.857 309.571C164.857 274.411 159.88 240.691 151.021 215.829C142.162 190.967 130.147 177 117.618 177C105.09 177 93.075 190.967 84.2161 215.829C75.3572 240.691 70.3804 274.411 70.3804 309.571L117.618 309.571H164.857Z" fill="white"/>
<path d="M71.8804 309.571C71.8804 274.529 76.8434 240.989 85.6291 216.333C90.0232 204.001 95.1643 194.48 100.678 188.07C106.197 181.654 111.954 178.5 117.618 178.5C123.283 178.5 129.04 181.654 134.559 188.07C140.073 194.48 145.214 204.001 149.608 216.333C158.394 240.989 163.357 274.529 163.357 309.571" stroke="#094067" stroke-width="3"/>
<rect x="195.532" y="97.7622" width="5.91646" height="40.808" transform="rotate(7.91915 195.532 97.7622)" fill="white"/>
<path d="M23.1421 94.7144H59.7135V128.238L43.7135 158.714L30.7611 119.857L23.1421 128.238V94.7144Z" fill="white"/>
<rect x="45.9995" y="94.7144" width="149.333" height="73.1429" fill="white"/>
<path d="M94.7612 185.381L141.999 183.857L133.618 186.143L134.38 241H102.38V186.905L94.7612 185.381Z" fill="white"/>
<ellipse cx="113.809" cy="157.952" rx="72.381" ry="28.1905" fill="#FFFFFE"/>
<path d="M202.045 99.2857C202.045 88.4798 199.72 77.7797 195.202 67.7963C190.684 57.813 184.061 48.7419 175.713 41.1009C167.364 33.46 157.453 27.3989 146.546 23.2636C135.638 19.1284 123.947 17 112.141 17C100.334 17 88.6433 19.1284 77.7355 23.2636C66.8278 27.3989 56.9168 33.46 48.5683 41.1009C40.2199 48.7419 33.5976 57.813 29.0794 67.7963C24.5613 77.7797 22.2358 88.4798 22.2358 99.2857L112.141 99.2857H202.045Z" fill="#FFFFFE"/>
<path d="M187.257 169.05C189.92 169.735 192.676 169.352 195.176 167.949C197.676 166.546 199.807 164.185 201.301 161.167C202.795 158.148 203.585 154.607 203.569 150.99C203.553 147.374 202.734 143.845 201.214 140.849C199.694 137.854 197.542 135.526 195.03 134.162C192.518 132.797 189.759 132.456 187.102 133.182C184.445 133.908 182.009 135.668 180.102 138.24C178.195 140.812 176.903 144.08 176.389 147.631L189.855 151.095L187.257 169.05Z" fill="#FFFFFE"/>
<mask id="path-13-inside-1_297_94" fill="white">
<path d="M87.7597 130.524C87.7597 135.153 84.6897 138.905 80.9026 138.905C77.1155 138.905 74.0454 135.153 74.0454 130.524C74.0454 125.895 77.1155 122.143 80.9026 122.143C84.6897 122.143 87.7597 125.895 87.7597 130.524ZM78.5026 130.524C78.5026 132.144 79.5771 133.457 80.9026 133.457C82.228 133.457 83.3026 132.144 83.3026 130.524C83.3026 128.904 82.228 127.591 80.9026 127.591C79.5771 127.591 78.5026 128.904 78.5026 130.524Z"/>
</mask>
<path d="M87.7597 130.524C87.7597 135.153 84.6897 138.905 80.9026 138.905C77.1155 138.905 74.0454 135.153 74.0454 130.524C74.0454 125.895 77.1155 122.143 80.9026 122.143C84.6897 122.143 87.7597 125.895 87.7597 130.524ZM78.5026 130.524C78.5026 132.144 79.5771 133.457 80.9026 133.457C82.228 133.457 83.3026 132.144 83.3026 130.524C83.3026 128.904 82.228 127.591 80.9026 127.591C79.5771 127.591 78.5026 128.904 78.5026 130.524Z" fill="#094067" stroke="#094067" stroke-width="2" mask="url(#path-13-inside-1_297_94)"/>
<mask id="path-14-inside-2_297_94" fill="white">
<path d="M148.712 130.524C148.712 135.153 145.642 138.905 141.855 138.905C138.068 138.905 134.998 135.153 134.998 130.524C134.998 125.895 138.068 122.143 141.855 122.143C145.642 122.143 148.712 125.895 148.712 130.524ZM139.455 130.524C139.455 132.144 140.529 133.457 141.855 133.457C143.18 133.457 144.255 132.144 144.255 130.524C144.255 128.904 143.18 127.591 141.855 127.591C140.529 127.591 139.455 128.904 139.455 130.524Z"/>
</mask>
<path d="M148.712 130.524C148.712 135.153 145.642 138.905 141.855 138.905C138.068 138.905 134.998 135.153 134.998 130.524C134.998 125.895 138.068 122.143 141.855 122.143C145.642 122.143 148.712 125.895 148.712 130.524ZM139.455 130.524C139.455 132.144 140.529 133.457 141.855 133.457C143.18 133.457 144.255 132.144 144.255 130.524C144.255 128.904 143.18 127.591 141.855 127.591C140.529 127.591 139.455 128.904 139.455 130.524Z" fill="#094067" stroke="#094067" stroke-width="2" mask="url(#path-14-inside-2_297_94)"/>
<line x1="170.01" y1="100.618" x2="176.105" y2="147.856" stroke="#094067" stroke-width="3"/>
<path d="M39.7603 91.6666L42.0453 127.476L96.9248 87.0957L99.2173 106.144L139.626 71.8592L170.184 112.244" stroke="#094067" stroke-width="3"/>
<path d="M23.7358 99.2857C23.7358 88.6962 26.0145 78.2067 30.446 68.4148C34.8777 58.6225 41.3774 49.7159 49.5811 42.2074C57.785 34.6987 67.5316 28.7362 78.2673 24.6662C89.0031 20.5962 100.514 18.5 112.141 18.5C123.768 18.5 135.278 20.5962 146.014 24.6662C156.75 28.7362 166.496 34.6987 174.7 42.2074C182.904 49.7159 189.404 58.6225 193.835 68.4148C198.267 78.2067 200.545 88.6962 200.545 99.2857" stroke="#094067" stroke-width="3"/>
<path d="M23.9586 97.5352L23.9582 129L31.6113 120.62L42.2838 152.619" stroke="#094067" stroke-width="3"/>
<line x1="201.059" y1="97.9562" x2="196.487" y2="133.004" stroke="#094067" stroke-width="3"/>
<path d="M177.874 147.846C178.356 144.51 179.565 141.482 181.307 139.133C183.048 136.785 185.216 135.252 187.498 134.629C189.766 134.009 192.128 134.292 194.314 135.48C196.515 136.675 198.469 138.755 199.876 141.528C201.283 144.299 202.054 147.596 202.069 150.997C202.084 154.398 201.34 157.707 199.957 160.502C198.573 163.298 196.635 165.41 194.442 166.641C192.263 167.864 189.902 168.182 187.63 167.597" stroke="#094067" stroke-width="3"/>
<path d="M181.137 168.268C174.159 174.869 155.809 181.739 138.046 184.619M98.4266 186.143C80.4381 183.469 54.5569 175.556 47.0255 169.022C43.2724 165.766 41.4259 162.39 41.2916 159.103C41.1576 155.824 42.7209 152.445 46.1921 149.161" stroke="#094067" stroke-width="3"/>
<path d="M66.4263 122.7C68.721 120.558 71.3199 119.303 74.4068 118.691C80.093 117.564 85.6614 117.361 91.7956 117.758" stroke="#094067" stroke-width="2" stroke-linecap="round"/>
<path d="M128.763 117.433C134.549 116.656 140.678 117.36 146.426 118.116C151.253 118.75 156.331 120.401 160.612 122.143" stroke="#094067" stroke-width="2" stroke-linecap="round"/>
<path d="M184.713 153.836C182.322 151.078 183.801 146.877 186.306 144.713C187.619 143.579 189.308 142.963 190.962 143.734C191.746 144.1 192.23 144.85 192.754 145.505" stroke="#094067" stroke-width="3" stroke-linecap="round"/>
<path d="M109.092 192.238L116.714 201.381L130.37 188.431" stroke="#3DA9FC" stroke-width="3"/>
<path d="M113.664 198.334C111.378 204.429 110.581 210.815 110.374 217.158C110.199 222.505 110.143 228.015 111.488 233.234C111.713 234.105 113.014 240.386 114.882 239.633C115.578 239.353 116.138 238.684 116.605 238.131C117.619 236.928 118.549 235.621 119.383 234.289C124.261 226.504 123.716 217.942 123.569 209C123.52 206.043 122.807 200.619 121.283 197.572" stroke="#3DA9FC" stroke-width="3" stroke-linecap="round"/>
</g>
<rect x="3" y="3" width="224" height="224" rx="27" stroke="#094067" stroke-width="6"/>
<defs>
<clipPath id="clip0_297_94">
<rect width="230" height="230" rx="30" fill="white"/>
</clipPath>
</defs>
</svg>
