<svg width="40" height="40" viewBox="0 0 40 40" fill="none" xmlns="http://www.w3.org/2000/svg">
<rect x="0.5" y="0.5" width="39" height="39" rx="7.5" fill="#FFFFFE" stroke="#094067"/>
<path d="M18.368 34.272C18.1547 34.4427 17.9093 34.5173 17.632 34.496C17.3547 34.4747 17.12 34.3573 16.928 34.144C16.7573 33.9307 16.6827 33.6853 16.704 33.408C16.7253 33.1307 16.8427 32.9067 17.056 32.736C18.2293 31.712 19.2 30.3573 19.968 28.672C18.6027 28.16 17.4187 27.3067 16.416 26.112C15.4133 24.896 14.816 23.3173 14.624 21.376C14.6027 21.0987 14.6667 20.8533 14.816 20.64C14.9867 20.4267 15.2107 20.3093 15.488 20.288C15.7653 20.2667 16.0107 20.3413 16.224 20.512C16.4373 20.6827 16.5547 20.9067 16.576 21.184C16.7467 22.7413 17.216 23.9893 17.984 24.928C18.752 25.8453 19.6373 26.496 20.64 26.88C21.2587 25.0027 21.6427 22.944 21.792 20.704C21.9627 18.464 21.9307 16.2453 21.696 14.048C20.2667 14.24 18.912 14.7307 17.632 15.52C16.352 16.288 15.2 17.248 14.176 18.4C13.1733 19.552 12.3307 20.832 11.648 22.24C10.9867 23.6267 10.528 25.0453 10.272 26.496C10.2507 26.7307 10.1333 26.9227 9.92 27.072C9.728 27.2213 9.51467 27.296 9.28 27.296C9.024 27.2747 8.8 27.1893 8.608 27.04C8.43733 26.8693 8.34133 26.656 8.32 26.4C8.192 25.2693 8.08533 24.0533 8 22.752C7.91467 21.4507 7.85067 20.16 7.808 18.88C7.76533 17.6 7.744 16.4053 7.744 15.296C7.744 14.1653 7.76533 13.216 7.808 12.448C7.82933 12.1707 7.936 11.9467 8.128 11.776C8.34133 11.584 8.58667 11.4987 8.864 11.52C9.14133 11.52 9.36533 11.6267 9.536 11.84C9.728 12.032 9.81333 12.2667 9.792 12.544C9.77067 13.2267 9.74933 14.08 9.728 15.104C9.70667 16.128 9.696 17.2373 9.696 18.432C9.71733 19.6267 9.74933 20.8427 9.792 22.08C10.56 20.224 11.5307 18.592 12.704 17.184C13.8987 15.776 15.2427 14.6453 16.736 13.792C18.2293 12.9173 19.7973 12.3733 21.44 12.16C21.184 10.4533 20.8 8.85333 20.288 7.36C20.2027 7.104 20.224 6.848 20.352 6.592C20.48 6.336 20.672 6.16533 20.928 6.08C21.2053 5.99467 21.4613 6.016 21.696 6.144C21.952 6.272 22.1227 6.464 22.208 6.72C22.5067 7.552 22.752 8.416 22.944 9.312C23.1573 10.208 23.3387 11.1253 23.488 12.064C25.1733 12.128 26.6667 12.5227 27.968 13.248C29.2907 13.952 30.3253 14.9227 31.072 16.16C31.8187 17.376 32.192 18.7947 32.192 20.416C32.192 21.8027 31.936 23.04 31.424 24.128C30.912 25.216 30.2187 26.144 29.344 26.912C28.4907 27.6587 27.52 28.2347 26.432 28.64C25.344 29.024 24.224 29.216 23.072 29.216C22.7093 29.216 22.3147 29.184 21.888 29.12C21.4613 30.1653 20.9493 31.1253 20.352 32C19.776 32.896 19.1147 33.6533 18.368 34.272ZM23.136 27.328C24.416 27.328 25.5893 27.04 26.656 26.464C27.7227 25.8667 28.576 25.0453 29.216 24C29.856 22.9547 30.176 21.76 30.176 20.416C30.176 19.136 29.888 18.0373 29.312 17.12C28.736 16.1813 27.9573 15.4453 26.976 14.912C26.016 14.3787 24.928 14.0693 23.712 13.984C23.9467 16.2453 23.968 18.5387 23.776 20.864C23.584 23.168 23.1787 25.312 22.56 27.296C22.6667 27.3173 22.7627 27.328 22.848 27.328C22.9547 27.328 23.0507 27.328 23.136 27.328Z" fill="#3DA9FC"/>
</svg>
