<svg width="60" height="61" viewBox="0 0 60 61" fill="none" xmlns="http://www.w3.org/2000/svg">
<rect y="1" width="60" height="60" rx="4" fill="#3DA9FC"/>
<path d="M7.256 27C5.848 27 5.144 26.296 5.144 24.888V6.712C5.144 5.90133 5.35733 5.34667 5.784 5.048C6.21067 4.74933 6.82933 4.6 7.64 4.6C8.74933 4.6 9.58133 5.08 10.136 6.04L15.384 15.16L20.568 6.072C20.9093 5.47467 21.2933 5.08 21.72 4.888C22.168 4.696 22.7547 4.6 23.48 4.6C24.888 4.6 25.592 5.304 25.592 6.712V24.888C25.592 26.296 24.888 27 23.48 27C22.072 27 21.368 26.296 21.368 24.888V11.8L17.4 19.032C16.888 20.0133 16.2053 20.504 15.352 20.504C14.4987 20.504 13.816 20.0133 13.304 19.032L9.336 11.8V24.888C9.336 26.296 8.64267 27 7.256 27ZM31.4628 33.24H30.6948C30.0334 33.1973 29.5321 32.9947 29.1908 32.632C28.8708 32.2693 28.7108 31.7893 28.7108 31.192C28.7108 29.9973 29.0948 29.4533 29.8628 29.56C30.0548 29.5813 30.2468 29.592 30.4388 29.592C30.6308 29.6133 30.8228 29.624 31.0148 29.624C31.5908 29.624 32.0174 29.56 32.2948 29.432C32.5721 29.3253 32.7854 29.1227 32.9348 28.824C33.1054 28.5467 33.2868 28.1627 33.4788 27.672L33.7348 26.968L28.6148 14.008C28.3374 13.2613 28.3054 12.6747 28.5188 12.248C28.7321 11.8 29.1481 11.576 29.7668 11.576H30.0228C31.2388 11.576 32.0388 12.1413 32.4228 13.272L35.4948 22.136L38.3428 13.304C38.7268 12.152 39.5268 11.576 40.7428 11.576C41.4254 11.576 41.8948 11.8 42.1508 12.248C42.4068 12.6747 42.4068 13.2613 42.1508 14.008L36.9028 28.856C36.5614 29.816 36.1668 30.616 35.7188 31.256C35.2921 31.9173 34.7374 32.408 34.0548 32.728C33.3934 33.0693 32.5294 33.24 31.4628 33.24ZM7.256 53C5.848 53 5.144 52.296 5.144 50.888V32.712C5.144 31.304 5.83733 30.6 7.224 30.6C8.61067 30.6 9.304 31.304 9.304 32.712V49.16H18.68C20.088 49.16 20.792 49.8 20.792 51.08C20.792 52.36 20.088 53 18.68 53H7.256ZM29.5685 53.352C28.1392 53.352 26.8485 53.0213 25.6965 52.36C24.5658 51.6987 23.6698 50.76 23.0085 49.544C22.3685 48.328 22.0485 46.9093 22.0485 45.288C22.0485 43.6453 22.3685 42.2267 23.0085 41.032C23.6698 39.816 24.5658 38.8773 25.6965 38.216C26.8485 37.5333 28.1392 37.192 29.5685 37.192C31.0192 37.192 32.3098 37.5333 33.4405 38.216C34.5712 38.8773 35.4565 39.816 36.0965 41.032C36.7578 42.2267 37.0885 43.6453 37.0885 45.288C37.0885 46.9093 36.7578 48.328 36.0965 49.544C35.4565 50.76 34.5712 51.6987 33.4405 52.36C32.3098 53.0213 31.0192 53.352 29.5685 53.352ZM29.5685 49.704C30.5925 49.704 31.4245 49.3307 32.0645 48.584C32.7258 47.816 33.0565 46.7173 33.0565 45.288C33.0565 43.8373 32.7258 42.7387 32.0645 41.992C31.4245 41.224 30.5925 40.84 29.5685 40.84C28.5445 40.84 27.7125 41.224 27.0725 41.992C26.4538 42.7387 26.1445 43.8373 26.1445 45.288C26.1445 46.7173 26.4538 47.816 27.0725 48.584C27.7125 49.3307 28.5445 49.704 29.5685 49.704ZM46.084 59.24C43.652 59.24 41.7427 58.5573 40.356 57.192C39.8653 56.68 39.6627 56.168 39.748 55.656C39.8547 55.1653 40.164 54.7493 40.676 54.408C41.2093 54.0453 41.6787 53.9173 42.084 54.024C42.5107 54.152 42.9907 54.4293 43.524 54.856C43.8653 55.0907 44.2387 55.272 44.644 55.4C45.0707 55.528 45.5507 55.592 46.084 55.592C47.2573 55.592 48.1107 55.24 48.644 54.536C49.1987 53.832 49.476 52.6907 49.476 51.112V50.76C48.4947 51.592 47.3213 52.008 45.956 52.008C44.5907 52.008 43.3747 51.7413 42.308 51.208C41.2627 50.6533 40.4307 49.8213 39.812 48.712C39.2147 47.6027 38.916 46.2267 38.916 44.584C38.916 42.9413 39.2147 41.576 39.812 40.488C40.4307 39.3787 41.2627 38.5573 42.308 38.024C43.3747 37.4693 44.5907 37.192 45.956 37.192C46.7027 37.192 47.4493 37.352 48.196 37.672C48.9427 37.9707 49.5507 38.5253 50.02 39.336V39.08C50.02 38.504 50.1693 38.1093 50.468 37.896C50.788 37.6827 51.2147 37.576 51.748 37.576C52.9 37.576 53.476 38.28 53.476 39.688V51.112C53.476 53.608 52.8893 55.5813 51.716 57.032C50.564 58.504 48.6867 59.24 46.084 59.24ZM46.276 48.52C47.3 48.52 48.132 48.168 48.772 47.464C49.4333 46.76 49.764 45.8 49.764 44.584C49.764 43.368 49.4333 42.4187 48.772 41.736C48.132 41.0533 47.3 40.712 46.276 40.712C45.252 40.712 44.452 41.0533 43.876 41.736C43.3 42.4187 43.012 43.368 43.012 44.584C43.012 45.8 43.3 46.76 43.876 47.464C44.452 48.168 45.252 48.52 46.276 48.52Z" fill="#FFFFFE"/>
</svg>
